<mxfile host="app.diagrams.net" agent="Mozilla/5.0 (Windows NT 10.0; Win64; x64) AppleWebKit/537.36 (KHTML, like Gecko) Chrome/138.0.0.0 Safari/537.36" version="28.0.7">
  <diagram name="Page-1" id="FI8hZV1EhYLFNZEdJ58t">
    <mxGraphModel dx="872" dy="473" grid="1" gridSize="10" guides="1" tooltips="1" connect="1" arrows="1" fold="1" page="1" pageScale="1" pageWidth="827" pageHeight="1169" math="0" shadow="0">
      <root>
        <mxCell id="0" />
        <mxCell id="1" parent="0" />
        <mxCell id="WyMAr9uXWNtobNJMjlKe-3" value="Data Extractions and Matching&amp;nbsp;" style="whiteSpace=wrap;html=1;aspect=fixed;" vertex="1" parent="1">
          <mxGeometry x="40" y="160" width="80" height="80" as="geometry" />
        </mxCell>
        <mxCell id="WyMAr9uXWNtobNJMjlKe-7" value="&lt;b&gt;Data Cleaning and Preprocessing&lt;/b&gt;" style="shape=process;whiteSpace=wrap;html=1;backgroundOutline=1;fillColor=#d5e8d4;strokeColor=#82b366;gradientColor=#97d077;" vertex="1" parent="1">
          <mxGeometry x="180" y="170" width="120" height="60" as="geometry" />
        </mxCell>
        <mxCell id="WyMAr9uXWNtobNJMjlKe-8" value="&lt;b&gt;Hashing&lt;/b&gt;" style="shape=process;whiteSpace=wrap;html=1;backgroundOutline=1;fillColor=#d5e8d4;strokeColor=#82b366;gradientColor=#97d077;" vertex="1" parent="1">
          <mxGeometry x="360" y="170" width="120" height="60" as="geometry" />
        </mxCell>
        <mxCell id="WyMAr9uXWNtobNJMjlKe-9" value="&lt;b&gt;Named Entity Recognition&amp;nbsp;&lt;/b&gt;" style="shape=process;whiteSpace=wrap;html=1;backgroundOutline=1;fillColor=#d5e8d4;strokeColor=#82b366;gradientColor=#97d077;" vertex="1" parent="1">
          <mxGeometry x="540" y="170" width="120" height="60" as="geometry" />
        </mxCell>
        <mxCell id="WyMAr9uXWNtobNJMjlKe-10" value="Topic Modelling&amp;nbsp;" style="whiteSpace=wrap;html=1;aspect=fixed;" vertex="1" parent="1">
          <mxGeometry x="720" y="160" width="80" height="80" as="geometry" />
        </mxCell>
        <mxCell id="WyMAr9uXWNtobNJMjlKe-11" value="Data Storage" style="shape=cylinder3;whiteSpace=wrap;html=1;boundedLbl=1;backgroundOutline=1;size=15;fillColor=#dae8fc;strokeColor=#6c8ebf;" vertex="1" parent="1">
          <mxGeometry x="50" y="10" width="60" height="80" as="geometry" />
        </mxCell>
        <mxCell id="WyMAr9uXWNtobNJMjlKe-12" value="Towards Deduplication and reporting&amp;nbsp;" style="ellipse;shape=cloud;whiteSpace=wrap;html=1;fillColor=#fff2cc;strokeColor=#d6b656;gradientColor=#ffd966;" vertex="1" parent="1">
          <mxGeometry x="665" y="330" width="190" height="100" as="geometry" />
        </mxCell>
        <mxCell id="WyMAr9uXWNtobNJMjlKe-13" value="" style="shape=flexArrow;endArrow=classic;html=1;rounded=0;entryX=0;entryY=0.5;entryDx=0;entryDy=0;exitX=1;exitY=0.5;exitDx=0;exitDy=0;" edge="1" parent="1" source="WyMAr9uXWNtobNJMjlKe-9" target="WyMAr9uXWNtobNJMjlKe-10">
          <mxGeometry width="50" height="50" relative="1" as="geometry">
            <mxPoint x="640" y="200" as="sourcePoint" />
            <mxPoint x="670" y="150" as="targetPoint" />
          </mxGeometry>
        </mxCell>
        <mxCell id="WyMAr9uXWNtobNJMjlKe-16" value="" style="endArrow=classic;html=1;rounded=0;exitX=1;exitY=0.25;exitDx=0;exitDy=0;entryX=0;entryY=0.25;entryDx=0;entryDy=0;" edge="1" parent="1" source="WyMAr9uXWNtobNJMjlKe-7" target="WyMAr9uXWNtobNJMjlKe-8">
          <mxGeometry width="50" height="50" relative="1" as="geometry">
            <mxPoint x="390" y="260" as="sourcePoint" />
            <mxPoint x="440" y="210" as="targetPoint" />
          </mxGeometry>
        </mxCell>
        <mxCell id="WyMAr9uXWNtobNJMjlKe-17" value="" style="endArrow=classic;html=1;rounded=0;exitX=0;exitY=0.75;exitDx=0;exitDy=0;entryX=1;entryY=0.75;entryDx=0;entryDy=0;" edge="1" parent="1" source="WyMAr9uXWNtobNJMjlKe-8" target="WyMAr9uXWNtobNJMjlKe-7">
          <mxGeometry width="50" height="50" relative="1" as="geometry">
            <mxPoint x="320" y="270" as="sourcePoint" />
            <mxPoint x="370" y="270" as="targetPoint" />
          </mxGeometry>
        </mxCell>
        <mxCell id="WyMAr9uXWNtobNJMjlKe-18" value="" style="endArrow=classic;html=1;rounded=0;exitX=1;exitY=0.25;exitDx=0;exitDy=0;entryX=0;entryY=0.25;entryDx=0;entryDy=0;" edge="1" parent="1" source="WyMAr9uXWNtobNJMjlKe-8" target="WyMAr9uXWNtobNJMjlKe-9">
          <mxGeometry width="50" height="50" relative="1" as="geometry">
            <mxPoint x="460" y="190" as="sourcePoint" />
            <mxPoint x="510" y="190" as="targetPoint" />
          </mxGeometry>
        </mxCell>
        <mxCell id="WyMAr9uXWNtobNJMjlKe-20" value="" style="endArrow=classic;html=1;rounded=0;exitX=0;exitY=0.75;exitDx=0;exitDy=0;entryX=1;entryY=0.75;entryDx=0;entryDy=0;" edge="1" parent="1" source="WyMAr9uXWNtobNJMjlKe-9" target="WyMAr9uXWNtobNJMjlKe-8">
          <mxGeometry width="50" height="50" relative="1" as="geometry">
            <mxPoint x="390" y="260" as="sourcePoint" />
            <mxPoint x="440" y="210" as="targetPoint" />
          </mxGeometry>
        </mxCell>
        <mxCell id="WyMAr9uXWNtobNJMjlKe-23" value="" style="shape=flexArrow;endArrow=classic;html=1;rounded=0;entryX=0;entryY=0.5;entryDx=0;entryDy=0;exitX=1;exitY=0.5;exitDx=0;exitDy=0;" edge="1" parent="1">
          <mxGeometry width="50" height="50" relative="1" as="geometry">
            <mxPoint x="120" y="199.5" as="sourcePoint" />
            <mxPoint x="180" y="199.5" as="targetPoint" />
          </mxGeometry>
        </mxCell>
        <mxCell id="WyMAr9uXWNtobNJMjlKe-24" value="" style="shape=singleArrow;direction=south;whiteSpace=wrap;html=1;" vertex="1" parent="1">
          <mxGeometry x="50" y="90" width="60" height="70" as="geometry" />
        </mxCell>
        <mxCell id="WyMAr9uXWNtobNJMjlKe-25" value="" style="shape=singleArrow;direction=south;whiteSpace=wrap;html=1;" vertex="1" parent="1">
          <mxGeometry x="730" y="240" width="60" height="100" as="geometry" />
        </mxCell>
        <mxCell id="WyMAr9uXWNtobNJMjlKe-26" value="&lt;h2&gt;&lt;b&gt;&lt;font face=&quot;Times New Roman&quot; style=&quot;font-size: 20px;&quot;&gt;Nielsen One Auto Tagging Pipeline Overview&amp;nbsp;&lt;/font&gt;&lt;/b&gt;&lt;/h2&gt;" style="rounded=0;whiteSpace=wrap;html=1;fillColor=#ffff88;strokeColor=#36393d;" vertex="1" parent="1">
          <mxGeometry x="239" y="20" width="401" height="60" as="geometry" />
        </mxCell>
      </root>
    </mxGraphModel>
  </diagram>
</mxfile>
